Patient4_TMGait_0pt6_02_left_12_EMG.mot
version=1
nRows=30
nColumns=33
inDegrees=no
endheader
time	1LAddLong	2LGlutMax	3LGlutMed	4LIliopsoas	5LSemiMemb	6LBicFemLong	7LRecFem	8LVastMed	9LVastLat	10LGasMed	11LTibAnt	12lTibPost	13LPeroneusLong	14LSol	15LExtDigLong	16LFlexDigLong	17RAddLong	18RGlutMax	19RGlutMed	20RIliopsoas	21RSemiMemb	22RBicFemLong	23RRecFem	24RVastMed	25RVastLat	26RGasMed	27RTibAnt	28RTibPost	29RPeroneusLong	30RSol	31RExtDigLong	32RFlexDigLong
15.595	0.011749	-0.063477	-0.12741	0.002289	0.01358	0.11856	-0.15793	0.002594	-0.020599	-0.18875	-0.004578	-0.018005	-0.14938	0.068665	-0.019226	0.010376	-0.023346	0.033875	0.25421	-0.080414	0.25085	0.10788	0.11719	-0.14053	0.053558	-0.015717	0.001221	-0.005798	-0.006409	0.007629	-0.00061	-0.013275
15.596	0.006714	-0.043335	-0.18143	0.026398	0.013885	0.076904	-0.15549	-0.007629	-0.014191	-0.78308	-0.005951	-0.017395	-0.19623	0.00351	-0.003357	-0.59341	-0.023804	0.032654	0.2034	-0.049896	0.18753	0.081635	-0.084839	-0.10376	0.059509	-0.016937	0.005646	-0.005341	-0.055695	-0.00946	-0.00061	-0.014801
15.597	0.007782	-0.03891	-0.10452	0.014648	0.000916	0.083923	-0.15961	-0.031586	-0.006714	-0.8876	-0.009766	-0.006104	-0.233	-0.12238	-0.001526	-0.12894	0.051117	0.077362	0.10941	-0.047302	0.070953	-0.011902	-0.16373	-0.17258	0.099335	-0.009308	0.016632	-0.007172	-0.070038	-0.026855	-0.000458	-0.00946
15.598	0.003967	-0.017242	-0.056152	0.007019	-0.016632	0.084381	-0.16007	-0.011292	-0.018463	-0.63889	-0.003662	-0.010223	-0.098419	0.079803	-0.006714	0.22995	0.092468	0.076904	0.050507	-0.082245	0.25085	-0.027161	-0.3006	-0.21439	0.11185	-0.012817	0.010376	-0.007477	-0.014801	-0.011902	-0.002747	-0.00061
15.599	0.007324	0.001221	-0.029144	0.00061	-0.047607	0.02655	-0.16235	0.001678	-0.011749	-0.43182	-0.002747	-0.013123	0.052948	0.33539	-0.021362	0.37857	0.070801	0.011749	0.035248	-0.10407	0.10819	0.05127	-0.29465	-0.005035	0.1828	-0.010529	0.004425	-0.004578	0.053406	-0.01236	-0.001831	-0.014191
15.6	0.010071	-0.004578	0.006714	-0.011139	-0.029144	-0.030823	-0.18082	0.013733	-0.00351	-0.224	-0.007324	-0.008545	0.10803	0.15533	-0.016174	0.11002	0.033417	-0.007477	-0.00946	-0.052185	0.19211	0.13489	-0.19638	0.043182	0.21133	-0.013733	0.019684	-0.009766	0.072937	-0.032806	-0.002289	-0.009308
15.601	0.009918	0.033569	0.017548	-0.012817	0.010986	-0.063782	-0.17334	0.002289	-0.01236	-0.06134	-0.021667	0.004883	0.077362	-0.064697	-0.011139	0.093536	0.020142	0.00061	0.024261	-0.027161	0.26688	0.20004	-0.13382	0.168	0.21973	-0.00885	0.032654	-0.005493	0.035095	-0.019684	-0.000763	-0.00824
15.602	0.013123	0.046082	-0.015106	-0.01358	0.03006	-0.057983	-0.17548	0	-0.016022	-0.093231	-0.007935	0.006714	0.039063	-0.026245	0.01236	-0.27191	0.00885	0.010834	0.025024	0.077209	0.21362	0.25436	-0.002136	0.10681	0.18738	-0.011597	0.034943	-0.008698	0.014343	-0.030823	-0.002594	-0.009155
15.603	0.010986	0.06012	0.000305	-0.018463	0.016632	-0.019684	-0.20325	0.006561	-0.02533	-0.10346	-0.00824	0.002594	0.001221	0.14404	0.052032	0.063782	-0.027771	-0.089111	0.033722	0.074921	0.29541	0.33386	-0.063171	-0.022888	0.18829	-0.008392	0.044098	-0.010986	-0.009766	-0.014343	-0.001678	-0.003967
15.604	0.011139	0.031281	-0.010834	-0.005188	0.00946	-0.035095	-0.19699	0.000305	-0.021362	-0.084076	-0.010681	0.006104	-0.027466	0.1355	0.050049	0.10498	-0.023651	-0.049896	-0.14481	0.050659	0.28366	0.4184	-0.21652	-0.096588	0.39108	-0.013123	0.035248	-0.010681	-0.041046	-0.037842	-0.00473	-0.003357
15.605	0.015411	0.01709	-0.014801	-0.010376	-0.009613	0.000916	-0.21042	0.002899	-0.027618	-0.067902	-0.005798	-0.005035	-0.021057	0.12955	0.040436	0.024872	-0.10422	-0.086975	-0.17838	0.041656	0.23773	0.42938	-0.2887	0.023651	0.29312	-0.0177	0.051727	-0.008087	-0.1152	-0.052795	-0.001526	-0.00824
15.606	0.011749	0.031128	-0.023956	-0.011139	-0.013123	0.022736	-0.21652	0.014343	-0.015259	-0.075073	-0.006714	-0.013885	-0.079803	0.12497	0.019073	-0.02243	-0.15915	-0.15411	0.10407	0.05661	0.29831	0.28534	-0.35416	0.11978	0.24429	-0.020599	0.062561	-0.01236	-0.19165	-0.059967	-0.001526	-0.010529
15.607	0.007324	0.050507	-0.015564	0.004272	-0.012817	0.034027	-0.21103	0.000153	-0.012665	-0.14328	-0.006409	-0.012665	-0.11765	0.2063	0.012665	-0.001373	-0.055847	-0.24887	0.14404	0.040131	0.26199	0.26459	-0.3772	0.13321	0.17319	-0.013733	0.038757	-0.007324	-0.15625	-0.062103	-0.002747	-0.014191
15.608	0.018768	0.065002	-0.029755	0.009613	-0.011597	0.016937	-0.24719	-0.001678	0.00885	-0.22537	-0.0177	0.003662	-0.10742	0.2214	0.020447	0.02533	-0.024261	-0.36652	0.26032	0.019379	0.25436	0.19974	-0.1651	0.017853	0.045929	-0.011902	-0.010681	0.003052	-0.04364	-0.063019	-0.00061	-0.010986
15.609	0.017548	0.057678	-0.020752	0.002289	-0.005951	0.012512	-0.24155	-0.002289	0.004425	-0.26428	-0.018311	0.00412	-0.037537	0.19943	0.022278	-0.21942	-0.024567	-0.37399	0.23392	-0.005341	0.49484	0.082397	-0.065765	-0.006561	0.59601	-0.020142	0.004425	-0.019379	-0.045319	-0.10056	-0.001984	-0.007019
15.61	0.005951	0.06546	0.00946	-0.001373	-0.023956	0.032959	-0.23239	-0.012817	0.007629	-0.21439	-0.007782	-0.04364	0.16022	0.31021	0.018616	-0.24719	-0.056305	-0.35507	0.11597	-0.031738	0.24826	0.034332	-0.11643	0.22232	1.149	-0.014648	0.014343	-0.007172	-0.008392	-0.11353	-0.003204	-0.009766
15.611	0.016174	0.089264	0.06073	-0.005951	-0.060883	0.022736	-0.23392	-0.001373	0.006714	-0.11215	-0.011902	-0.19974	0.22263	0.29343	0.026398	0.79437	-0.10895	-0.3154	0.18036	-0.029297	-0.016785	-0.19638	-0.13107	0.37445	1.0887	-0.014191	0.021057	-0.012665	0.044403	-0.033264	-0.00412	-0.010223
15.612	0.023041	0.11169	0.11551	0.011749	-0.035553	0.018768	-0.24445	-0.001068	0.006104	-0.062256	-0.00473	0.29617	0.14999	0.48645	0.021515	-0.43625	-0.048981	-0.21515	0.22705	-0.046692	0.18326	-0.62775	-0.090027	0.46539	0.28595	-0.009766	0.011139	0.001221	0.11734	0.037384	-0.003967	-0.015106
15.613	0.014496	0.091248	0.041809	0.013123	0.036011	-0.052643	-0.19974	0.000458	-0.012817	0.10712	0.002899	0.44937	-0.14633	0.4509	0.019531	-0.39536	-0.019836	-0.1236	0.26306	-0.050507	0.13199	-0.97382	-0.26123	0.30914	-0.32547	-0.005798	-0.014801	-0.00946	0.16708	0.011444	-0.002441	-0.012512
15.614	0.021973	0.10696	-0.002899	0.005798	0.041809	0.033875	-0.19226	-0.00412	-0.021667	0.24918	-0.00824	-0.040436	-0.27039	-0.079193	0.024567	0.24017	-0.022888	0.14999	0.30518	-0.083923	0.22812	-1.3846	-0.63873	0.36118	-0.39993	-0.007782	-0.027924	-0.00946	0.17456	0.037689	-0.001831	-0.014191
15.615	0.010071	0.13077	0.019379	0.003357	0.014954	0.072479	-0.18768	-0.001678	-0.023956	0.21133	-0.006866	-0.19836	-0.31097	-0.70053	0.016174	0.46295	0.006561	0.22705	0.2301	0.006409	0.21072	-1.3344	-1.0039	0.6752	-0.69824	-0.007172	0.000763	-0.006409	0.083923	0.042419	-0.000305	-0.00824
15.616	0.012512	0.14252	0.056458	-0.018158	0.010223	0.015259	-0.16281	0.004578	-0.025177	0.16708	0.000305	-0.13199	-0.085449	-1.0385	-0.028381	-0.354	0.060425	0.28488	0.27756	0.03006	0.11017	-1.337	-0.76202	0.38132	-0.81161	-0.014038	0.024261	-0.014191	-0.024872	0.014496	-0.002594	-0.009613
15.617	0.010529	0.17471	0.05249	0	-0.017395	-0.009308	-0.17288	0.001678	-0.017548	0.066681	0.009003	-0.077057	0.086212	-0.87097	-0.052185	-0.40543	0.068207	0.22736	0.2771	0.034637	0.18875	-1.2605	-0.47485	0.25513	-0.78995	-0.012054	0.002441	-0.008698	-0.008392	-0.018768	0.001068	-0.000305
15.618	0.008545	0.12772	0.06073	0.007019	-0.052795	-0.099792	-0.1741	-0.001984	-0.021057	0.059052	-0.020142	0.028381	0.30411	-0.21927	-0.010681	0.079193	0.076447	0.090637	0.25604	0.022125	0.17685	-1.102	-0.062561	-0.11429	-0.85983	-0.0177	-0.019684	-0.002899	0.00061	-0.038757	-0.000305	-0.009155
15.619	0.016022	0.1059	0.082245	0.011292	-0.071106	-0.077209	-0.18219	0.004272	-0.012512	0.2179	-0.016937	0.10986	0.28778	0.70969	-0.007477	0.51621	0.096893	-0.046234	0.29846	0.006104	0.26382	-0.97656	0.17899	-0.46585	-0.73608	-0.018768	0.020142	-0.00824	-0.074615	-0.035553	-0.001678	0.000763
15.62	0.02243	0.074463	0.093079	-0.002289	-0.027924	-0.014343	-0.16403	-0.007629	-0.012665	0.25986	-0.005035	0.13245	0.11002	0.23254	-0.046234	0.062866	0.068665	-0.16022	0.13809	-0.098114	0.38452	-0.83817	0.14801	-0.69611	-0.31982	-0.019226	0.007172	-0.007782	-0.092621	-0.058594	0.003052	0.002899
15.621	0.016174	0.1001	0.11215	0.011292	0.017853	-0.023346	-0.16464	-0.006104	-0.013733	0.066528	-0.003357	-0.003357	0.052338	-0.1918	-0.040283	-0.30945	0.048981	-0.12253	-0.013123	-0.10544	0.24124	-0.66071	0.083618	-0.72861	0.19226	-0.021667	0.005035	-0.013428	-0.058594	-0.11978	-0.002594	-0.003662
15.622	0.015411	0.097198	0.14679	-0.011292	0.014191	-0.065002	-0.15747	0.000763	-0.01236	-0.09903	0.005341	0.1976	-0.031128	0.079041	-0.003357	-0.1181	-0.003052	-0.1207	-0.25726	-0.00946	0.12497	-0.49972	-0.034485	-0.6279	0.35889	-0.020447	-0.005341	-0.013275	-0.05249	-0.066833	-0.004578	0.000153
15.623	0.018005	0.11826	0.15335	-0.005188	0.013428	-0.041199	-0.13809	0.007935	-0.024872	-0.18707	-0.005341	-0.17441	-0.066986	-0.58823	0.027924	0.1503	-0.000305	-0.14725	-0.47165	0.10696	0.13718	-0.37216	-0.044098	-0.5693	0.24841	-0.014038	-0.00885	-0.006866	-0.028992	-0.072784	-0.001678	0
15.624	0.021667	0.12054	0.12894	-0.02655	-0.002136	-0.063629	-0.14175	0.000458	-0.024109	-0.25452	-0.023041	0.009155	-0.10895	-1.1415	0.038605	0.060425	0.034485	-0.098114	-0.39017	0.18219	0.18631	-0.36713	0.07309	-0.39215	-0.10101	-0.02243	0.006866	-0.012512	-0.036774	-0.075226	-0.001373	-0.001068
